# ProBuilder 5.2.3
# https://unity3d.com/unity/features/worldbuilding/probuilder
# 5/17/2025 6:33:25 PM

mtllib ./CrackedRemovableWall.mtl
o CrackedRemovableWall

g Floor (34)
v -0.5 -0.5 0.5
v -0.5 0.5 0.5
v 0.5 0.5 0.5
v 0.5 -0.5 0.5
v -0.5 0.5 -0.5
v 0.5 0.5 -0.5
v -0.5 -0.5 -0.5
v 0.5 -0.5 -0.5
v -0.4000002 0.07003477 0.03152318
v -0.4000002 0.06541044 0.4978623
v -0.4000002 0.0889958 0.4763144
v -0.4000002 0.1244574 0.4642527
v -0.4000002 0.1494475 0.4956272
v -0.4000002 0.2031584 0.4922776
v -0.4000002 0.2477188 0.4734275
v -0.4000002 0.3002583 0.4813132
v -0.4000002 0.3407635 0.457872
v -0.4000002 0.3684048 0.4740915
v -0.4000002 0.4270417 0.4492734
v -0.4000002 0.4364775 0.4124082
v -0.4000002 0.4716902 0.400477
v -0.4000002 0.4839558 0.3708127
v -0.4000002 0.4519194 0.3099204
v -0.4000002 0.464173 0.2960605
v -0.4000002 0.4324194 0.2644235
v -0.4000002 0.436864 0.2106516
v -0.4000002 0.4165884 0.2083676
v -0.4000002 0.3990884 0.1671482
v -0.4000002 0.3997645 0.1098642
v -0.4000002 0.3760353 0.1163694
v -0.4000002 0.3641815 0.06618138
v -0.4000002 0.3078256 0.05159886
v -0.4000002 0.2277864 0.0576157
v -0.5 0.08899611 0.4763142
v -0.4999995 0.1244577 0.4642529
v -0.5000005 0.1494478 0.4956269
v -0.5 0.2031586 0.4922785
v -0.5 0.247719 0.4734276
v -0.5 0.3002586 0.4813135
v -0.5 0.3407638 0.4578723
v -0.5 0.3684052 0.4740922
v -0.5 0.427042 0.4492736
v -0.5 0.06541073 0.4978631
v -0.5000005 0.4364778 0.4124087
v -0.5 0.4716905 0.4004778
v -0.5 0.4839561 0.3708134
v -0.5 0.4519197 0.3099203
v -0.5 0.4641733 0.2960604
v -0.5 0.4324197 0.2644236
v -0.5000005 0.4368643 0.2106514
v -0.5000005 0.4165888 0.2083679
v -0.5 0.3990887 0.1671479
v -0.5 0.3997648 0.1098642
v -0.5 0.3760356 0.1163697
v -0.5000005 0.3641818 0.06618211
v -0.5 0.3078259 0.05159966
v -0.4999995 0.2277867 0.05761653
v -0.5 0.07003498 0.03152343

vt 0 0
vt 0 1
vt 1 1
vt 1 0
vt 0.03152318 0.07003477
vt 0.4978623 0.06541044
vt 0.4763144 0.0889958
vt 0.4642527 0.1244574
vt 0.4956272 0.1494475
vt 0.4922776 0.2031584
vt 0.4734275 0.2477188
vt 0.4813132 0.3002583
vt 0.457872 0.3407635
vt 0.4740915 0.3684048
vt 0.4492734 0.4270417
vt 0.4124082 0.4364775
vt 0.400477 0.4716902
vt 0.3708127 0.4839558
vt 0.3099204 0.4519194
vt 0.2960605 0.464173
vt 0.2644235 0.4324194
vt 0.2106516 0.436864
vt 0.2083676 0.4165884
vt 0.1671482 0.3990884
vt 0.1098642 0.3997645
vt 0.1163694 0.3760353
vt 0.06618138 0.3641815
vt 0.05159886 0.3078256
vt 0.0576157 0.2277864
vt 0.5000029 0.5000001
vt 0.5000029 -0.4999999
vt -0.5 -0.4999999
vt -0.5 0.5000001
vt 0.5000011 0.3683746
vt 0.5000011 0.3152465
vt 0.4000013 0.3683743
vt 0.4000013 0.3152463
vt 0.5000021 0.06559355
vt 0.5000022 0.0187944
vt 0.4000023 0.06559324
vt 0.4000024 0.01879407
vt -0.4999995 0.4929612
vt -0.4999995 0.5377851
vt -0.3999997 0.4929609
vt -0.3999997 0.5377848
vt -0.500001 -0.08564252
vt -0.500001 -0.06714264
vt -0.4000012 -0.0856424
vt -0.4000012 -0.06714252
vt -0.5000028 0.1577553
vt -0.5000027 0.1898555
vt -0.400003 0.1577546
vt -0.400003 0.1898547
vt 0.5000036 0.3182303
vt 0.5000042 0.2810513
vt 0.4000039 0.31823
vt 0.4000039 0.2810509
vt -0.5000017 0.4846918
vt -0.5000018 0.553498
vt -0.4000019 0.4846918
vt -0.400002 0.5534974
vt 0.5000023 0.5576767
vt 0.5000023 0.5256278
vt 0.4000025 0.5576763
vt 0.4000025 0.5256277
vt 0.5000014 0.2181474
vt 0.5000015 0.1544745
vt 0.4000016 0.2181471
vt 0.4000017 0.1544743
vt -0.5000024 0.2912994
vt -0.5000018 0.3293527
vt -0.4000021 0.2912988
vt -0.4000021 0.3293525
vt -0.500001 0.4372908
vt -0.500001 0.4576945
vt -0.4000007 0.4372905
vt -0.4000007 0.4576943
vt -0.5000018 0.1739483
vt -0.5000013 0.2279039
vt -0.4000016 0.1739486
vt -0.4000016 0.2279039
vt -0.5000018 0.3098155
vt -0.5000024 0.3545965
vt -0.400002 0.3098158
vt -0.4000021 0.3545963
vt -0.5000004 0.310936
vt -0.500001 0.369148
vt -0.4000006 0.3109357
vt -0.4000007 0.3691477
vt -0.500001 0.1481224
vt -0.5000006 0.1996908
vt -0.4000008 0.1481216
vt -0.4000008 0.1996905
vt -0.5 0.2228271
vt -0.5000004 0.3030921
vt -0.4000007 0.2228267
vt -0.4000007 0.3030918
vt -0.5000005 0.3318859
vt -0.5000005 0.3564908
vt -0.4000007 0.3318856
vt -0.4000007 0.3564904
vt -0.5000011 0.1051388
vt -0.5000011 0.1624265
vt -0.4000013 0.1051389
vt -0.4000013 0.1624268
vt 0.5000013 0.480786
vt 0.5000002 0.4406757
vt 0.400001 0.4807863
vt 0.4000009 0.4406757
vt 0.5000045 0.1721351
vt 0.500005 0.11832
vt 0.4000047 0.1721349
vt 0.4000047 0.1183196
vt 0.5000009 0.04369121
vt 0.5000009 -0.004692523
vt 0.4000011 0.04369097
vt 0.4000011 -0.004692452
vt 0.5000002 0.4971901
vt 0.5000002 0.03082746
vt 0.4000004 0.4971892
vt 0.4000004 0.0308272
vt 0.5000005 -0.2555784
vt 0.5000005 -0.2875256
vt 0.4000007 -0.2555788
vt 0.4000008 -0.2875253
vt 0.500001 -0.03166442
vt 0.5000015 -0.06912109
vt 0.4000017 -0.03166478
vt 0.4000018 -0.06912155
vt -0.5000001 0.07424024
vt -0.4999996 0.2341354
vt -0.4000003 0.07424003
vt -0.4000003 0.234135

vn 0 0 1
vn 0 1 0
vn 0 0 -1
vn 0 -1 0
vn 1 0 0
vn -1 0 0
vn -2.254377E-06 0.1484319 -0.9889227
vn -3.922922E-06 -0.5008881 -0.8655121
vn -1.260524E-06 -0.7058031 0.7084081
vn -1.640566E-06 -0.7491885 -0.6623569
vn -5.373247E-06 -0.9241193 -0.3821041
vn -8.577443E-06 -0.3209036 -0.9471119
vn -3.303752E-06 -0.8849938 0.4656029
vn -4.252756E-06 0.5060987 -0.8624756
vn -2.850482E-06 -0.3897827 -0.9209068
vn -4.217322E-06 -0.9687696 -0.2479626
vn 2.298472E-06 -0.1119135 0.993718
vn -3.082981E-06 -0.9966013 -0.0823762
vn -4.182223E-06 -0.9204796 0.3907906
vn 6.932788E-06 -0.250506 0.9681151
vn -1.512094E-06 -0.9732226 0.2298649
vn 8.55217E-06 0.07496259 0.9971864
vn 4.243937E-06 0.2644008 0.9644129
vn -2.675873E-06 -0.9999304 -0.01180124
vn 4.351887E-06 0.7821945 -0.6230344
vn -9.062468E-06 -0.06222121 -0.9980624
vn 2.988332E-06 0.9999509 0.009915562
vn -7.906098E-07 -0.674515 -0.7382612
vn -8.120584E-06 -0.6744981 -0.7382767
vn -3.078679E-06 -0.322009 -0.9467366
vn 2.158806E-06 -0.1631888 0.9865949

usemtl WhiteRowTile-Walls
f 17/13/6 15/11/6 16/12/6
f 24/20/6 25/21/6 23/19/6
f 21/17/6 22/18/6 20/16/6
f 20/16/6 22/18/6 23/19/6
f 19/15/6 17/13/6 18/14/6
f 19/15/6 20/16/6 17/13/6
f 20/16/6 23/19/6 17/13/6
f 25/21/6 17/13/6 23/19/6
f 15/11/6 17/13/6 25/21/6
f 26/22/6 27/23/6 25/21/6
f 15/11/6 25/21/6 27/23/6
f 15/11/6 27/23/6 28/24/6
f 30/26/6 31/27/6 32/28/6
f 30/26/6 32/28/6 33/29/6
f 29/25/6 30/26/6 28/24/6
f 33/29/6 28/24/6 30/26/6
f 15/11/6 28/24/6 33/29/6
f 14/10/6 12/8/6 13/9/6
f 15/11/6 12/8/6 14/10/6
f 33/29/6 12/8/6 15/11/6
f 11/7/6 9/5/6 10/6/6
f 12/8/6 9/5/6 11/7/6
f 33/29/6 9/5/6 12/8/6
f 41/14/6 40/13/6 39/12/6
f 39/12/6 38/11/6 37/10/6
f 35/8/6 34/7/6 36/9/6
f 36/9/6 34/7/6 43/6/6
f 1/31/6 2/30/6 43/6/6
f 36/9/6 43/6/6 2/30/6
f 37/10/6 36/9/6 2/30/6
f 39/12/6 37/10/6 2/30/6
f 41/14/6 39/12/6 2/30/6
f 42/15/6 41/14/6 2/30/6
f 43/6/6 58/5/6 1/31/6
f 1/31/6 58/5/6 7/32/6
f 5/33/6 7/32/6 58/5/6
f 57/29/6 5/33/6 58/5/6
f 56/28/6 5/33/6 57/29/6
f 5/33/6 56/28/6 55/27/6
f 53/25/6 55/27/6 54/26/6
f 5/33/6 55/27/6 53/25/6
f 52/24/6 51/23/6 50/22/6
f 53/25/6 52/24/6 50/22/6
f 5/33/6 53/25/6 50/22/6
f 50/22/6 49/21/6 48/20/6
f 5/33/6 50/22/6 48/20/6
f 48/20/6 47/19/6 46/18/6
f 5/33/6 48/20/6 46/18/6
f 45/17/6 44/16/6 42/15/6
f 2/30/6 45/17/6 42/15/6
f 46/18/6 45/17/6 2/30/6
f 5/33/6 46/18/6 2/30/6
f 3/3/1 2/2/1 1/1/1
f 1/1/1 4/4/1 3/3/1
f 6/3/2 5/2/2 2/1/2
f 2/1/2 3/4/2 6/3/2
f 8/3/3 7/2/3 5/1/3
f 5/1/3 6/4/3 8/3/3
f 4/3/4 1/2/4 7/1/4
f 7/1/4 8/4/4 4/3/4
f 6/3/5 3/2/5 4/1/5
f 4/1/5 8/4/5 6/3/5
f 15/37/7 38/35/7 39/34/7
f 39/34/7 16/36/7 15/37/7
f 16/41/8 39/39/8 40/38/8
f 40/38/8 17/40/8 16/41/8
f 24/45/9 48/43/9 49/42/9
f 49/42/9 25/44/9 24/45/9
f 23/49/10 47/47/10 48/46/10
f 48/46/10 24/48/10 23/49/10
f 21/53/11 45/51/11 46/50/11
f 46/50/11 22/52/11 21/53/11
f 20/57/12 44/55/12 45/54/12
f 45/54/12 21/56/12 20/57/12
f 22/61/13 46/59/13 47/58/13
f 47/58/13 23/60/13 22/61/13
f 17/65/14 40/63/14 41/62/14
f 41/62/14 18/64/14 17/65/14
f 18/69/15 41/67/15 42/66/15
f 42/66/15 19/68/15 18/69/15
f 19/73/16 42/71/16 44/70/16
f 44/70/16 20/72/16 19/73/16
f 26/77/17 50/75/17 51/74/17
f 51/74/17 27/76/17 26/77/17
f 25/81/18 49/79/18 50/78/18
f 50/78/18 26/80/18 25/81/18
f 27/85/19 51/83/19 52/82/19
f 52/82/19 28/84/19 27/85/19
f 31/89/20 55/87/20 56/86/20
f 56/86/20 32/88/20 31/89/20
f 30/93/21 54/91/21 55/90/21
f 55/90/21 31/92/21 30/93/21
f 32/97/22 56/95/22 57/94/22
f 57/94/22 33/96/22 32/97/22
f 29/101/23 53/99/23 54/98/23
f 54/98/23 30/100/23 29/101/23
f 28/105/24 52/103/24 53/102/24
f 53/102/24 29/104/24 28/105/24
f 12/109/25 35/107/25 36/106/25
f 36/106/25 13/108/25 12/109/25
f 13/113/26 36/111/26 37/110/26
f 37/110/26 14/112/26 13/113/26
f 14/117/15 37/115/15 38/114/15
f 38/114/15 15/116/15 14/117/15
f 9/121/27 58/119/27 43/118/27
f 43/118/27 10/120/27 9/121/27
f 10/125/29 43/123/28 34/122/28
f 34/122/28 11/124/28 10/125/29
f 11/129/30 34/127/30 35/126/30
f 35/126/30 12/128/30 11/129/30
f 33/133/31 57/131/31 58/130/31
f 58/130/31 9/132/31 33/133/31

